<svg xmlns="http://www.w3.org/2000/svg" viewBox="0 0 936.14 961.45"><defs><style>.cls-1{fill:#414c86;}.cls-2{fill:#c7a7be;}.cls-3{fill:#36aeaa;}.cls-4{fill:#ecbdde;}.cls-5{fill:#5d71bc;}.cls-6{fill:#93278f;opacity:0.61;}.cls-17,.cls-22,.cls-7{font-size:17px;}.cls-17,.cls-18,.cls-22,.cls-7{font-family:Europa-Bold, Europa-Bold;font-weight:700;}.cls-7{letter-spacing:0.03em;}.cls-8{letter-spacing:0.04em;}.cls-9{letter-spacing:0.05em;}.cls-10{letter-spacing:0.05em;}.cls-11{letter-spacing:0.03em;}.cls-12{letter-spacing:0.03em;}.cls-13{letter-spacing:0.04em;}.cls-14,.cls-17,.cls-22{letter-spacing:0.05em;}.cls-15{fill:#d9efee;}.cls-16,.cls-19{font-size:14px;font-family:Europa-Light, Europa-Light;}.cls-16{letter-spacing:0.1em;}.cls-17,.cls-18{fill:#fff;}.cls-18{font-size:16px;letter-spacing:0.05em;}.cls-19{letter-spacing:0.05em;}.cls-20{letter-spacing:0.11em;}.cls-21{letter-spacing:0.05em;}.cls-23{fill:none;stroke:#4d4d4d;stroke-miterlimit:10;stroke-width:0.25px;}</style></defs><title>Artboard 9 copy</title><g id="Boxes_for_bra_sizes" data-name="Boxes for bra sizes"><rect class="cls-1" x="145.98" y="256" width="122.43" height="156"/><rect class="cls-1" x="268.41" y="256" width="123.14" height="104"/><rect class="cls-2" x="146.15" y="102.29" width="122.4" height="153.7"/><rect class="cls-3" x="268.41" y="359.96" width="123.14" height="155.22"/><rect class="cls-3" x="391.56" y="359.96" width="123.54" height="103.04"/><rect class="cls-4" x="391.56" y="463" width="123.6" height="156"/><rect class="cls-4" x="515.15" y="463" width="123.61" height="104.04"/><rect class="cls-5" x="515.08" y="566.98" width="123.68" height="104.04"/><rect class="cls-5" x="638.76" y="567" width="122.95" height="154.93"/><rect class="cls-5" x="761.84" y="671.02" width="123.02" height="51.06"/><rect class="cls-6" x="761.84" y="721.98" width="123.02" height="207.03"/><rect class="cls-6" x="638.76" y="721.96" width="123.08" height="102.89"/><rect class="cls-6" x="515.15" y="671.02" width="123.61" height="51.06"/></g><g id="Layer_3" data-name="Layer 3"><text class="cls-7" transform="translate(420.36 31.71)">B<tspan class="cls-8" x="10.62" y="0">A</tspan><tspan class="cls-9" x="22.86" y="0">N</tspan><tspan class="cls-10" x="36.01" y="0">D </tspan><tspan class="cls-11" x="54.26" y="0">S</tspan><tspan class="cls-12" x="64.92" y="0">I</tspan><tspan class="cls-13" x="70.45" y="0">Z</tspan><tspan class="cls-14" x="81.24" y="0">E</tspan></text><rect class="cls-15" x="53.19" y="102.29" width="92.96" height="826.71"/><rect class="cls-15" x="489.04" y="-293.58" width="52.98" height="738.77" transform="translate(439.73 591.33) rotate(-90)"/><text class="cls-16" transform="translate(183.22 80.31)">28–29”</text><text class="cls-16" transform="translate(306.99 80.31)">30–31”</text><text class="cls-16" transform="translate(429.54 80.31)">32–33”</text><text class="cls-16" transform="translate(552.46 80.31)">34–35”</text><text class="cls-16" transform="translate(675.82 80.31)">36–37”</text><text class="cls-16" transform="translate(797.82 80.31)">38–39”</text><text class="cls-17" transform="translate(313.76 291.17)">34A<tspan x="0.75" y="52">34B</tspan><tspan x="0.02" y="104">34C</tspan><tspan x="-0.02" y="156">34D</tspan><tspan x="-6.22" y="208">34DD</tspan></text><text class="cls-18" transform="translate(437.42 394.06)">36A<tspan x="0.7" y="52">36B</tspan><tspan x="0.02" y="104">36C</tspan><tspan x="-0.02" y="156">36D</tspan><tspan x="-5.86" y="208">36DD</tspan></text><text class="cls-18" transform="translate(561.88 497.82)">38A<tspan x="0.7" y="52">38B</tspan><tspan x="0.02" y="104">38C</tspan><tspan x="-0.02" y="156">38D</tspan><tspan x="-5.86" y="208">38DD</tspan></text><text class="cls-18" transform="translate(683.95 601.62)">40A<tspan x="0.7" y="52">40B</tspan><tspan x="0.02" y="104">40C</tspan><tspan x="-0.02" y="156">40D</tspan><tspan x="-5.86" y="208">40DD</tspan></text><text class="cls-18" transform="translate(807.76 705.46)">42A<tspan x="0.7" y="52">42B</tspan><tspan x="0.02" y="104">42C</tspan><tspan x="-0.02" y="156">42D</tspan><tspan x="-5.86" y="208">42DD</tspan></text><text class="cls-19" transform="translate(89.12 130.58)">31”<tspan x="0" y="52">32”</tspan><tspan x="0" y="104">33”</tspan><tspan x="0" y="156">34”</tspan><tspan x="0" y="208">35”</tspan><tspan x="0" y="260">36”</tspan><tspan x="0" y="312">37”</tspan><tspan x="0" y="364">38”</tspan><tspan x="0" y="416">39”</tspan><tspan x="0" y="468">40”</tspan><tspan x="0" y="520">41”</tspan><tspan x="0" y="572">42”</tspan><tspan x="0" y="624">43”</tspan><tspan x="0" y="676">44”</tspan><tspan x="0" y="728">45”</tspan><tspan x="0" y="780">46”</tspan></text><text class="cls-18" transform="translate(185.82 134.42)">3<tspan class="cls-20" x="9.92" y="0">2</tspan><tspan class="cls-21" x="20.56" y="0">AA</tspan><tspan x="5.82" y="52">3</tspan><tspan class="cls-20" x="15.74" y="52">2</tspan><tspan class="cls-21" x="26.38" y="52">A</tspan><tspan x="7.01" y="104">32B</tspan><tspan x="6.32" y="156">32C</tspan><tspan x="6.29" y="208">32D</tspan><tspan x="0.45" y="260">32DD</tspan></text><text class="cls-22" transform="translate(30.4 528.22) rotate(-90)">BUST SIZE</text></g><g id="Grid"><line class="cls-23" x1="53.19" y1="153" x2="884.92" y2="153"/><line class="cls-23" x1="53.19" y1="205" x2="884.99" y2="205"/><line class="cls-23" x1="53.19" y1="256" x2="884.98" y2="256"/><line class="cls-23" x1="53.19" y1="309" x2="884.92" y2="309"/><line class="cls-23" x1="53.19" y1="360" x2="884.94" y2="360"/><line class="cls-23" x1="53.19" y1="412" x2="885.01" y2="412"/><line class="cls-23" x1="53.19" y1="463" x2="884.95" y2="463"/><line class="cls-23" x1="53.19" y1="515" x2="885.04" y2="515"/><line class="cls-23" x1="53.19" y1="567" x2="885.02" y2="567"/><line class="cls-23" x1="53.19" y1="619" x2="884.92" y2="619"/><line class="cls-23" x1="53.19" y1="671" x2="884.97" y2="671"/><line class="cls-23" x1="53.19" y1="722" x2="884.94" y2="722"/><line class="cls-23" x1="53.19" y1="774" x2="884.97" y2="774"/><line class="cls-23" x1="53.19" y1="825" x2="884.97" y2="825"/><line class="cls-23" x1="53.19" y1="877" x2="885" y2="877"/><line class="cls-23" x1="53.19" y1="929" x2="885.04" y2="929"/><line class="cls-23" x1="268.41" y1="49.31" x2="268.41" y2="928.96"/><line class="cls-23" x1="391.56" y1="49.31" x2="391.56" y2="928.96"/><line class="cls-23" x1="515.15" y1="49.31" x2="515.15" y2="928.96"/><line class="cls-23" x1="638.76" y1="49.31" x2="638.76" y2="928.96"/><line class="cls-23" x1="761.84" y1="49.31" x2="761.84" y2="928.96"/><line class="cls-23" x1="884.92" y1="49.31" x2="884.92" y2="928.96"/><line class="cls-23" x1="146.11" y1="49.31" x2="146.11" y2="928.96"/><line class="cls-23" x1="146.03" y1="49.31" x2="885.04" y2="49.31"/><line class="cls-23" x1="53.19" y1="102.15" x2="53.19" y2="929.08"/><line class="cls-23" x1="53.19" y1="102.29" x2="884.98" y2="102.29"/></g></svg>